<?xml version="1.0" encoding="UTF-8"?>
<svg id="Layer_1" xmlns="http://www.w3.org/2000/svg" version="1.1" xmlns:xlink="http://www.w3.org/1999/xlink" viewBox="0 0 595.28 704.35">
  <!-- Generator: Adobe Illustrator 29.8.7, SVG Export Plug-In . SVG Version: 2.1.1 Build 1)  -->
  <defs>
    <style>
      .st0 {
        fill: url(#linear-gradient5);
      }

      .st0, .st1, .st2, .st3, .st4, .st5 {
        fill-rule: evenodd;
      }

      .st1 {
        fill: url(#linear-gradient1);
      }

      .st2 {
        fill: url(#linear-gradient4);
      }

      .st3 {
        fill: url(#linear-gradient3);
      }

      .st4 {
        fill: url(#linear-gradient);
      }

      .st5 {
        fill: url(#linear-gradient2);
      }
    </style>
    <linearGradient id="linear-gradient" x1="104.62" y1="331.23" x2="221.24" y2="331.23" gradientUnits="userSpaceOnUse">
      <stop offset="0" stop-color="#dfb044"/>
      <stop offset="1" stop-color="#f5e975"/>
    </linearGradient>
    <linearGradient id="linear-gradient1" x1="225.16" y1="357" x2="264.62" y2="357" gradientUnits="userSpaceOnUse">
      <stop offset="0" stop-color="#dfb044"/>
      <stop offset=".55" stop-color="#f5e975"/>
    </linearGradient>
    <linearGradient id="linear-gradient2" x1="263.03" y1="376.67" x2="348.8" y2="376.67" gradientUnits="userSpaceOnUse">
      <stop offset="0" stop-color="#f5e975"/>
      <stop offset=".3" stop-color="#f0dc69"/>
      <stop offset=".85" stop-color="#e2ba4c"/>
      <stop offset="1" stop-color="#dfb044"/>
    </linearGradient>
    <linearGradient id="linear-gradient3" x1="345.55" y1="357.5" x2="403.63" y2="357.5" gradientUnits="userSpaceOnUse">
      <stop offset="0" stop-color="#f5e975"/>
      <stop offset=".25" stop-color="#f2e16e"/>
      <stop offset=".62" stop-color="#e9cc5c"/>
      <stop offset="1" stop-color="#dfb044"/>
    </linearGradient>
    <linearGradient id="linear-gradient4" x1="428.52" y1="356.98" x2="519.23" y2="356.98" gradientUnits="userSpaceOnUse">
      <stop offset=".07" stop-color="#f5e975"/>
      <stop offset=".59" stop-color="#dfb044"/>
    </linearGradient>
    <linearGradient id="linear-gradient5" x1="237.78" y1="297.6" x2="252" y2="297.6" gradientUnits="userSpaceOnUse">
      <stop offset="0" stop-color="#dfb044"/>
      <stop offset=".67" stop-color="#f5e975"/>
    </linearGradient>
  </defs>
  <path class="st4" d="M181.51,323.12c15.81-3.27,27.47-13.26,27.47-29.78,0-30.93-29.08-33.12-50.1-33.12-10.61,0-36.17,1.48-51.68,11-4.36,2.68-2.54,7.4.66,7.4,6.15,0,8.05,3.67,8.05,12.85v86.51c0,4.41-1.3,6.26-6.47,7-3.18.45-7.71,2.2-.63,7.72,7.1,5.52,25.87,9.52,56.23,9.52,33.61,0,56.21-13.56,56.21-39.33s-18.76-34.6-39.74-39.79ZM169.07,391.59c-13.52,0-32.16-1.28-32.16-17.81v-83.74c0-12.53,6.8-19.86,25.55-19.86,18.72,0,24.2,11.38,24.2,24.27s-7.42,23.86-23.94,23.86c-5.5,0-10.28,1.88-10.28,5.95s2.89,5.15,10.96,5.15,34.58,1.1,34.58,31.25c0,20.63-12.62,30.93-28.91,30.93Z"/>
  <path class="st1" d="M264.62,396.1c0-2.54-4.82-3.3-6.41-3.29-1.63,0-4.85-.71-4.85-4.79v-68.21c0-6.63-2.25-6.22-5.16-5.09-2.94,1.05-11.97,4.28-19.42,8-6.17,3.07-3.73,6.91,1.91,6.45,2.55-.22,5.05.93,5.05,5.38v54.24c0,3.32-2,3.23-7.71,4.65-5.13,1.33-2.19,6.52.84,6.52h29.47c5,0,6.27-1.23,6.27-3.84Z"/>
  <path class="st5" d="M338.18,393.87c-8.11-7.05-27.88-22.72-35.89-28.4-16.13-11.42-23.41-27.12-8.4-40.83,4.87-4.44,27.25-6.34,30.57,13.23,1.97,11.53-3.02,17.87-10.86,23.32-3.18,2.19-2.99,6.02.96,6.6,10.03,1.49,27.47-7.44,26.83-27.31-.41-12.95-10.03-18.05-10.03-18.05,0,0,10.7-5.28,13.25-8.83,4.8-6.54,1.88-14.03-2.31-15.35-4.2-1.27-7.94-1.27-11.11,6.62-3.92,9.72-9.19,10.91-9.19,10.91-23.92-7.32-54.24.13-54.24,29.55,0,16.51,11.88,25.31,17.75,30.08,5.96,4.94,22.04,16.66,31.61,23.22,9.73,6.63,22.54,23.39,7.62,41.31-6.15,7.36-25.84,10.35-36.33.83-9.55-8.67-14.49-33.32,5.14-43.03,5.46-2.71,7.62-6.23,3.43-7.79-6.12-2.17-33.97,6.65-33.97,29.8,0,14.76,12.11,30.42,26.25,33.82,15.14,3.66,33.51,3.92,48.04-8.91,14.55-12.91,15.73-37.9.87-50.78Z"/>
  <path class="st3" d="M417.86,380.33c-5.48,4.36-13.85,11.38-24.28,11.38-8.42,0-17.67-2.94-22.18-10.31-6.24-10.15-7.46-25.76-4.21-38.32,3.24-12.49,11.3-20.57,21.04-20.57,9.64,0,13.54,7.33,13.54,12.48,0,3.34.31,6.68-4.22,9.97-4.52,3.28-17.97,11.66-21.66,13.59-4.85,2.54-2.25,11.72,5.52,7.72,10.27-5.3,31.34-17.5,36.8-22.45,4.58-4.13,5.85-9.15.38-16.89-5.52-7.74-16.82-13.61-31.39-13.61-17.11,0-41.65,13.22-41.65,45.24,0,29.82,22.58,43.09,42.93,43.09,21.68,0,31.22-11.26,34.31-15.18,2.83-3.49.08-10.14-4.93-6.15Z"/>
  <path class="st2" d="M514.49,393.57c-3.06,0-7.95-.71-7.95-4.02,0-2.6.35-46.34.34-52.21,0-27.58-29.55-28.52-47.31-16.05-1.64,1.52-4.19,2.96-4.19,1.82v-5.48c0-1.49.35-4.41-3.23-4.05-3.51.37-16.18,6.17-20.03,7.82-2.83,1.25-5.16,3.32-5.16,4.77s4.29,3.45,7.12,2.85c1.56-.31,2.9.76,2.9,5.17v53.56c0,3.69-3.26,5.52-6.14,5.52-1.58,0-3.88.71-3.88,3.29s1.68,3.84,4.08,3.84h30.01c3.35,0,4.99-1.25,4.99-3.84s-3.27-3.29-6.47-3.29-3.89-2.19-3.89-5.52v-40.23c0-7.82,4.21-19.21,17.43-22.18,9.48-2.08,15,4.05,15,14.35v50.77c0,3.32-5.59,2.41-8.17,3.51-4.11,1.85-1.76,6.42,1.29,6.42h33.74c3.78,0,3.55-6.84-.48-6.84Z"/>
  <path class="st0" d="M244.9,304.74c3.92,0,7.1-3.2,7.1-7.16s-3.18-7.11-7.1-7.11c-3.92,0-7.12,3.18-7.12,7.11s3.2,7.15,7.12,7.16Z"/>
</svg>