<?xml version="1.0" encoding="UTF-8"?>
<svg id="Layer_1" xmlns="http://www.w3.org/2000/svg" version="1.1" xmlns:xlink="http://www.w3.org/1999/xlink" viewBox="48.35 125.17 390.58 131.5">
  <!-- Generator: Adobe Illustrator 29.8.7, SVG Export Plug-In . SVG Version: 2.1.1 Build 1)  -->
  <defs>
    <style>
      .st0 {
        fill: url(#GradientFill_4);
      }

      .st0, .st1, .st2, .st3, .st4, .st5 {
        fill-rule: evenodd;
      }

      .st1 {
        fill: url(#GradientFill_15);
      }

      .st2 {
        fill: url(#GradientFill_16);
      }

      .st6 {
        fill: #231f20;
      }

      .st3 {
        fill: url(#GradientFill_17);
      }

      .st4 {
        fill: url(#GradientFill_14);
      }

      .st5 {
        fill: url(#GradientFill_3);
      }

      .st7 {
        fill: none;
        stroke: #231f20;
        stroke-miterlimit: 10;
      }
    </style>
    <linearGradient id="GradientFill_17" data-name="GradientFill 17" x1="1287.3" y1="665.06" x2="1307.73" y2="713.18" gradientTransform="translate(-1222.19 -498.16) rotate(-.06)" gradientUnits="userSpaceOnUse">
      <stop offset="0" stop-color="#eb8038"/>
      <stop offset=".16" stop-color="#e73d30"/>
      <stop offset=".38" stop-color="#e73731"/>
      <stop offset=".6" stop-color="#eb8038"/>
      <stop offset=".83" stop-color="#f2af2c"/>
      <stop offset="1" stop-color="#efa534"/>
    </linearGradient>
    <linearGradient id="GradientFill_16" data-name="GradientFill 16" x1="1322.82" y1="693.46" x2="1331.7" y2="657.83" gradientTransform="translate(-1222.19 -498.16) rotate(-.06)" gradientUnits="userSpaceOnUse">
      <stop offset="0" stop-color="#38358d"/>
      <stop offset=".25" stop-color="#38358d"/>
      <stop offset=".64" stop-color="#6e4297"/>
      <stop offset=".91" stop-color="#703e92"/>
      <stop offset="1" stop-color="#5a398c"/>
    </linearGradient>
    <linearGradient id="GradientFill_15" data-name="GradientFill 15" x1="1276.21" y1="624.15" x2="1334.89" y2="675.16" gradientTransform="translate(-1222.19 -498.16) rotate(-.06)" gradientUnits="userSpaceOnUse">
      <stop offset="0" stop-color="#0b82ba"/>
      <stop offset=".11" stop-color="#077bb4"/>
      <stop offset=".21" stop-color="#0487be"/>
      <stop offset=".36" stop-color="#009d8f"/>
      <stop offset=".49" stop-color="#73b74e"/>
      <stop offset=".75" stop-color="#9ac143"/>
      <stop offset=".97" stop-color="#8cbe45"/>
      <stop offset="1" stop-color="#8cbe45"/>
    </linearGradient>
    <linearGradient id="GradientFill_14" data-name="GradientFill 14" x1="1297.64" y1="641.66" x2="1346.25" y2="683.91" gradientTransform="translate(-1222.19 -498.16) rotate(-.06)" gradientUnits="userSpaceOnUse">
      <stop offset="0" stop-color="#e73731"/>
      <stop offset=".19" stop-color="#e73831"/>
      <stop offset=".49" stop-color="#a23487"/>
      <stop offset=".78" stop-color="#7f3f8e"/>
      <stop offset="1" stop-color="#5a398c"/>
    </linearGradient>
    <linearGradient id="GradientFill_3" data-name="GradientFill 3" x1="1267.71" y1="650.9" x2="1325.77" y2="664.3" gradientTransform="translate(-1222.19 -498.16) rotate(-.06)" gradientUnits="userSpaceOnUse">
      <stop offset="0" stop-color="#0b82ba"/>
      <stop offset=".2" stop-color="#087cb5"/>
      <stop offset=".4" stop-color="#0072b0"/>
      <stop offset=".73" stop-color="#42378c"/>
      <stop offset="1" stop-color="#44368a"/>
    </linearGradient>
    <linearGradient id="GradientFill_4" data-name="GradientFill 4" x1="1320.68" y1="663.12" x2="1302.9" y2="717.85" gradientTransform="translate(-1222.19 -498.16) rotate(-.06)" gradientUnits="userSpaceOnUse">
      <stop offset="0" stop-color="#8cbe45"/>
      <stop offset=".15" stop-color="#8cbe45"/>
      <stop offset=".27" stop-color="#bdd043"/>
      <stop offset=".36" stop-color="#d6da2b"/>
      <stop offset=".48" stop-color="#f9e437"/>
      <stop offset=".53" stop-color="#f9e437"/>
      <stop offset=".68" stop-color="#fbcb2e"/>
      <stop offset=".77" stop-color="#f3b327"/>
      <stop offset=".87" stop-color="#f2af2c"/>
      <stop offset="1" stop-color="#efa534"/>
    </linearGradient>
  </defs>
  <g>
    <path class="st3" d="M72.08,163.4l-.84,1.11-.27.32c-12.64,16.63-10.86,35.73.4,55.18l4.49-14.83c-3.66-9.43-6.49-24.65,8.36-39.14h0l-12.14-2.63Z"/>
    <g>
      <path class="st2" d="M138.72,164.38l.04.02c-10.45,13.69-22.87,22.15-37.27,22.97-2.51.13-5.13-.27-7.58-.7-6.83-1-14.13-3.28-19.32-6.26,1.05-3.09,2.6-5.95,4.93-9.12,21.48,11.44,35.98,2.14,43.83-5.36h-.02s15.39-1.56,15.39-1.56Z"/>
      <path class="st1" d="M51.52,128.17h.26c26.94,3.13,41.74,14.59,47.46,31.19l.23.62-.02.04.02.05,1.31,4.8-10.12,2.47c-.33-1.36-.9-2.75-1.42-4.18v.03l-.02-.07-4.97-9.04c-4.34-5.43-11.09-10.18-21.67-13.02-.05,0-.14-.03-.2-.03l-10.86-12.85Z"/>
      <path class="st4" d="M92.37,150.41c16.07-4.54,31.7,1.2,46.26,13.85l.08.11-15.39,1.55-.09-.04c-7.75-4.87-20.08-9.88-34.81-2.35-4.58,2.39-7.27,5.31-10.12,9.6l-9.58-5.14c.94-1.7,2.2-3.08,3.31-4.61,4.77-5.99,11.62-9.88,20.33-12.98Z"/>
      <path class="st5" d="M97.86,187.17c-29.47-2.78-48.55-19.98-46.33-59l10.86,12.85c2.23,25.38,18.31,32.33,29.13,34.59l7.1,1.34-.76,10.22Z"/>
      <path class="st0" d="M91.49,175.54h0c-.12-3.68-.69-8.02-2.25-12.39,3.57-1.7,6.94-2.71,10.21-3.13,2.52,7.69,3.63,17.59,2.25,26.08l-.02.03c-.03.39-.1.81-.2,1.19,0,.09,0,.13-.02.19-.15.62-.34,1.17-.51,1.65-3.88,11.72-15.83,23.8-29.46,30.75-.05.04-.07.06-.12.08l4.49-14.83.07-.05c7.11-5.1,16.11-14.07,15.56-29.58h.03v.07l-.03-.07Z"/>
    </g>
  </g>
  <g>
    <path class="st6" d="M135.71,182.79h8.97l.03,23.31c0,3.69-.91,6.67-2.85,8.89-1.95,2.19-4.79,3.3-8.62,3.31-1.94,0-3.63-.42-5.09-1.3-1.5-.93-2.75-2.15-3.79-3.77l5.17-5.48c.05.06.09.17.15.23.04.11.07.18.12.27.35.34.67.74,1.01,1.07.33.33.65.65,1.02.91.21.14.4.3.66.35.21.09.46.15.63.15.97,0,1.61-.35,1.94-1.02.37-.71.56-1.46.63-2.22.02-.33.04-.62,0-.91.02-.24.04-.53.04-.74-.02-.07,0-.09-.04-.13,0-.05.02-.06.02-.11v-22.81Z"/>
    <polygon class="st6" points="168.19 182.62 168.23 210.68 179.03 210.63 179.03 218.27 159.28 218.27 159.22 182.62 168.19 182.62"/>
    <polygon class="st6" points="193.59 218.23 199.39 182.82 208.25 182.82 215.31 201.72 222.74 182.82 231.69 182.8 236.92 218.2 227.96 218.21 225.39 197.82 225.31 197.82 217.01 218.21 213.43 218.21 205.5 197.82 205.35 197.85 202.5 218.24 193.59 218.23"/>
    <path class="st6" d="M258.2,181.29c4.99.02,9.41,1.68,13.34,5.03,3.9,3.3,5.84,7.58,5.84,12.79,0,5.61-1.79,10.19-5.37,13.75-3.61,3.57-8.19,5.34-13.74,5.34s-10.15-1.73-13.76-5.26c-3.6-3.59-5.41-8.18-5.43-13.76-.02-5.23,1.96-9.51,5.84-12.8,3.86-3.36,8.31-5.01,13.31-5.03l-.02-.06h0ZM258.22,190.03c-2.71.02-4.98,1-6.93,2.85-1.93,1.86-2.84,3.93-2.84,6.3,0,2.98.93,5.45,2.84,7.41,1.95,1.99,4.26,2.95,6.97,2.97,2.68-.02,4.97-.99,6.88-2.99,1.93-1.96,2.88-4.42,2.86-7.39,0-2.39-.93-4.5-2.86-6.38-1.94-1.86-4.2-2.77-6.92-2.77Z"/>
    <path class="st6" d="M299.5,203.51l10.98,14.51h-11.21s-8.54-13.64-8.54-13.64l-.05.03v13.64h-9.02l-.04-35.38h13.44c3.44.04,6.29.91,8.56,2.61,2.36,1.73,3.53,4.47,3.53,8.27,0,2.46-.67,4.61-1.96,6.51-1.34,1.86-3.2,3.07-5.67,3.5l-.03-.04h0ZM290.66,189.63v8.85l.87.02c.11.03.33.03.44.03.16,0,.32,0,.41-.03,1.35-.03,2.57-.36,3.72-.91,1.08-.59,1.68-1.76,1.63-3.5,0-1.72-.58-2.91-1.65-3.48-1.12-.57-2.34-.92-3.7-.97-.12-.02-.29-.02-.42,0-.13,0-.33,0-.46-.02h-.85Z"/>
    <polygon class="st6" points="323.51 182.63 323.57 218.01 314.58 218.03 314.54 182.62 323.51 182.63"/>
    <path class="st6" d="M352.08,184.52l-3.53,6.95c-.85-.64-1.76-1.22-2.81-1.57-1.04-.47-2.12-.66-3.22-.67-.1,0-.31.01-.48.05-.17.01-.35.04-.58.1-.68.17-1.31.5-1.89.91-.63.5-.9,1.06-.9,1.85,0,.74.27,1.31.85,1.76.51.44,1.15.83,1.74,1.09.28.1.52.18.77.22.21.11.44.15.64.21l2.3.68c2.43.68,4.45,1.77,6.09,3.19,1.65,1.37,2.47,3.45,2.47,6.32v.7c-.07,1.6-.37,3.13-.87,4.64-.52,1.52-1.44,2.88-2.71,3.96-1.15.99-2.5,1.74-3.92,2.24-1.55.52-2.98.82-4.55.89-.22.03-.48.02-.7.05-.24,0-.43.05-.7,0-2.16.05-4.23-.29-6.33-.95-2.14-.73-4.05-1.68-5.78-2.91l3.83-7.27c1.19.98,2.36,1.81,3.65,2.52,1.41.7,2.82,1.08,4.3,1.07.04,0,.13,0,.19.03.05-.02.11-.02.22,0,1.04-.09,1.95-.42,2.7-.96.86-.59,1.29-1.41,1.29-2.54.01-.87-.35-1.57-1.01-2.08-.72-.51-1.53-.94-2.37-1.25-.35-.11-.72-.23-1.09-.32-.34-.15-.76-.22-1-.29-.07-.06-.11-.06-.19-.13-.08,0-.16-.02-.25,0-2.71-.79-4.86-1.79-6.51-2.94-1.65-1.2-2.4-3.42-2.4-6.75s1.07-6.23,3.3-8.44c2.29-2.08,5.11-3.09,8.61-3.1.67,0,1.39.03,2.14.07.74.06,1.5.2,2.2.37,1.22.25,2.34.59,3.45.95,1.08.45,2.14.86,3.02,1.42v-.05Z"/>
    <path class="st6" d="M376.35,181.16c4.97.02,9.42,1.7,13.3,5.06,3.92,3.28,5.85,7.56,5.85,12.8,0,5.59-1.74,10.18-5.42,13.74-3.56,3.59-8.14,5.31-13.7,5.31-5.55.03-10.1-1.72-13.76-5.27-3.62-3.54-5.42-8.12-5.42-13.75,0-5.23,1.96-9.5,5.86-12.8,3.88-3.37,8.3-4.99,13.28-4.99v-.1h0ZM376.35,189.9c-2.65.06-4.99.99-6.93,2.85-1.87,1.85-2.86,3.97-2.83,6.32,0,3.01.96,5.45,2.86,7.43,1.96,1.96,4.26,2.95,6.94,2.9,2.68.05,4.99-.98,6.91-2.97,1.9-1.92,2.85-4.42,2.85-7.36,0-2.4-1-4.52-2.86-6.34-1.93-1.9-4.24-2.83-6.93-2.83Z"/>
    <polygon class="st6" points="400.3 217.94 400.25 182.56 409.24 182.54 425.81 204.14 425.91 204.15 425.87 182.5 434.83 182.5 434.88 217.88 425.91 217.93 409.37 196.2 409.3 196.2 409.3 217.93 400.3 217.94"/>
  </g>
  <g>
    <path class="st6" d="M128.93,253.52h-4.37v-12.92h3.39c1.06,0,1.89.14,2.5.43.58.29,1.04.68,1.36,1.18.32.5.48,1.08.48,1.75,0,1.27-.66,2.17-1.98,2.73.95.17,1.7.57,2.26,1.16.56.6.84,1.32.84,2.15,0,.66-.17,1.25-.51,1.76-.34.51-.84.94-1.49,1.27-.66.33-1.47.49-2.47.49ZM128,242.24h-1.59v3.89h1.23c1,0,1.7-.19,2.11-.56.42-.38.62-.87.62-1.47,0-1.24-.79-1.86-2.36-1.86ZM128.14,247.77h-1.73v4.1h1.82c1.01,0,1.7-.08,2.06-.23.36-.16.65-.4.88-.73.21-.34.33-.69.33-1.08s-.13-.75-.35-1.08c-.23-.33-.57-.58-.98-.74-.42-.16-1.11-.25-2.02-.25Z"/>
    <path class="st6" d="M151.8,240.6h1.87v7.34c0,.99-.08,1.74-.23,2.25-.14.51-.33.92-.54,1.26-.2.34-.46.64-.78.9-1.02.88-2.35,1.32-4.01,1.32s-3.03-.44-4.05-1.31c-.3-.28-.56-.57-.78-.92-.22-.34-.4-.75-.53-1.23-.13-.49-.21-1.25-.21-2.3v-7.31h1.85v7.34c0,1.21.14,2.06.42,2.53.28.48.7.86,1.27,1.14.57.29,1.23.43,2,.43,1.11,0,2-.28,2.7-.86.35-.31.61-.68.78-1.09.17-.42.24-1.13.24-2.15v-7.34Z"/>
    <path class="st6" d="M163.82,240.6h1.85v12.92h-1.85v-12.92Z"/>
    <path class="st6" d="M176.11,240.6h1.85v11.23h5.82v1.69h-7.67v-12.92Z"/>
    <path class="st6" d="M193,253.49v-12.9h4.35c1.75,0,3.15.27,4.17.79,1.02.53,1.84,1.31,2.44,2.33.62,1.03.91,2.15.91,3.34,0,.87-.17,1.7-.5,2.49-.34.79-.82,1.48-1.43,2.07-.63.62-1.37,1.09-2.19,1.4-.49.2-.93.32-1.34.39-.41.06-1.19.09-2.33.09h-4.09ZM197.16,242.24h-2.31v9.61h2.36c.94,0,1.66-.06,2.17-.19.51-.12.94-.28,1.28-.48.34-.2.65-.43.92-.72.92-.92,1.38-2.09,1.38-3.5s-.46-2.53-1.4-3.4c-.35-.33-.75-.59-1.2-.8-.44-.21-.86-.35-1.28-.42-.38-.07-1.03-.1-1.92-.1Z"/>
    <path class="st6" d="M214.77,240.6h1.86v12.92h-1.86v-12.92Z"/>
    <path class="st6" d="M237.34,240.6h1.75v12.92h-1.58l-8.64-9.95v9.95h-1.74v-12.92h1.5l8.7,10.04v-10.04Z"/>
    <path class="st6" d="M256.43,247.15h4.35v5.48c-1.59.69-3.18,1.03-4.74,1.03-2.14,0-3.85-.62-5.15-1.87-1.26-1.25-1.9-2.79-1.9-4.62,0-1.93.66-3.54,1.99-4.82,1.32-1.29,2.98-1.92,4.98-1.92.73,0,1.43.07,2.09.23.64.16,1.47.44,2.47.86v1.89c-1.55-.9-3.08-1.34-4.6-1.34-1.41,0-2.6.48-3.57,1.44-.97.96-1.46,2.14-1.46,3.53,0,1.47.49,2.68,1.46,3.61.97.93,2.22,1.4,3.74,1.4.75,0,1.62-.17,2.65-.51l.19-.05v-2.69h-2.49v-1.65Z"/>
    <path class="st6" d="M290.87,247.15h4.33v5.48c-1.58.69-3.17,1.03-4.74,1.03-2.13,0-3.84-.62-5.13-1.87-1.28-1.25-1.92-2.79-1.92-4.62,0-1.93.68-3.54,2-4.82,1.32-1.29,2.99-1.92,4.99-1.92.72,0,1.42.07,2.07.23.65.16,1.47.44,2.47.86v1.89c-1.54-.9-3.07-1.34-4.59-1.34-1.42,0-2.6.48-3.56,1.44-.97.96-1.46,2.14-1.46,3.53,0,1.47.49,2.68,1.46,3.61.96.93,2.21,1.4,3.73,1.4.73,0,1.62-.17,2.65-.51l.18-.05v-2.69h-2.49v-1.65Z"/>
    <path class="st6" d="M311.83,240.41c2,0,3.66.63,4.99,1.9,1.32,1.26,2,2.85,2,4.75s-.69,3.49-2.02,4.74c-1.34,1.25-3.03,1.87-5.07,1.87s-3.56-.62-4.86-1.87c-1.31-1.25-1.96-2.81-1.96-4.7s.66-3.52,1.96-4.79c1.31-1.27,2.96-1.9,4.96-1.9ZM311.91,242.17c-1.49,0-2.71.46-3.66,1.39-.95.93-1.43,2.11-1.43,3.54s.48,2.56,1.44,3.48c.96.93,2.15,1.38,3.59,1.38s2.64-.46,3.61-1.41c.96-.94,1.44-2.12,1.44-3.52s-.49-2.52-1.44-3.46c-.97-.93-2.15-1.4-3.55-1.4Z"/>
    <path class="st6" d="M335.01,240.41c2,0,3.65.63,4.98,1.9,1.33,1.26,1.99,2.85,1.99,4.75s-.67,3.49-2,4.74c-1.36,1.25-3.03,1.87-5.08,1.87s-3.58-.62-4.87-1.87c-1.3-1.25-1.94-2.81-1.94-4.7s.65-3.52,1.97-4.79c1.29-1.27,2.95-1.9,4.96-1.9ZM335.07,242.17c-1.47,0-2.69.46-3.65,1.39-.96.93-1.43,2.11-1.43,3.54s.48,2.56,1.43,3.48c.96.93,2.16,1.38,3.6,1.38s2.64-.46,3.6-1.41c.98-.94,1.44-2.12,1.44-3.52s-.46-2.52-1.44-3.46c-.95-.93-2.14-1.4-3.55-1.4Z"/>
    <path class="st6" d="M351.84,253.49v-12.9h4.37c1.75,0,3.15.27,4.17.79,1.02.53,1.84,1.31,2.44,2.33.61,1.03.9,2.15.9,3.34,0,.87-.17,1.7-.5,2.49-.33.79-.8,1.48-1.42,2.07-.63.62-1.36,1.09-2.19,1.4-.5.2-.94.32-1.35.39-.4.06-1.17.09-2.32.09h-4.09ZM356.02,242.24h-2.32v9.61h2.37c.92,0,1.63-.06,2.14-.19.52-.12.94-.28,1.28-.48.34-.2.66-.43.94-.72.92-.92,1.38-2.09,1.38-3.5s-.47-2.53-1.4-3.4c-.35-.33-.74-.59-1.19-.8-.45-.21-.88-.35-1.28-.42-.4-.07-1.05-.1-1.92-.1Z"/>
    <path class="st6" d="M383.89,240.6h1.75v12.92h-1.58l-8.64-9.95v9.95h-1.73v-12.92h1.5l8.72,10.04v-10.04Z"/>
    <path class="st6" d="M395.98,240.6h7.33v1.64h-5.48v3.94h5.31v1.66h-5.31v4.02h5.66v1.64h-7.5v-12.9Z"/>
    <path class="st6" d="M416.23,248.1l-1.41-.85c-.87-.54-1.5-1.08-1.88-1.59-.37-.52-.55-1.12-.55-1.8,0-1.01.35-1.84,1.05-2.48.71-.63,1.62-.94,2.76-.94,1.08,0,2.06.3,2.97.9v2.11c-.94-.9-1.94-1.35-3.02-1.35-.59,0-1.09.14-1.48.42s-.59.64-.59,1.08c0,.38.15.75.43,1.08.28.34.74.69,1.39,1.06l1.41.84c1.57.94,2.36,2.14,2.36,3.59,0,1.04-.35,1.88-1.04,2.53-.69.65-1.6.96-2.71.96-1.27,0-2.42-.39-3.48-1.17v-2.35c1,1.27,2.16,1.9,3.46,1.9.58,0,1.07-.16,1.45-.48.38-.32.57-.73.57-1.21,0-.79-.57-1.53-1.7-2.25Z"/>
    <path class="st6" d="M432.49,248.1l-1.41-.85c-.88-.54-1.5-1.08-1.88-1.59-.37-.52-.55-1.12-.55-1.8,0-1.01.33-1.84,1.05-2.48.71-.63,1.62-.94,2.76-.94s2.07.3,2.96.9v2.11c-.92-.9-1.92-1.35-3-1.35-.6,0-1.1.14-1.49.42-.39.28-.59.64-.59,1.08,0,.38.15.75.44,1.08.28.34.74.69,1.38,1.06l1.41.84c1.57.94,2.36,2.14,2.36,3.59,0,1.04-.35,1.88-1.04,2.53-.69.65-1.61.96-2.71.96-1.27,0-2.43-.39-3.48-1.17v-2.35c1,1.27,2.16,1.9,3.46,1.9.58,0,1.06-.16,1.45-.48.39-.32.57-.73.57-1.21,0-.79-.56-1.53-1.69-2.25Z"/>
  </g>
  <line class="st7" x1="124.3" y1="228.77" x2="434.83" y2="228.77"/>
</svg>