<svg xmlns="http://www.w3.org/2000/svg" xmlns:xlink="http://www.w3.org/1999/xlink" version="1.1" x="0px" y="0px" viewBox="0 0 96 96" style="enable-background:new 0 0 96 96;" xml:space="preserve"><style type="text/css">
	.st0{fill-rule:evenodd;clip-rule:evenodd;}
</style><path class="st0" d="M77.01,40.712L49.338,89.63c-1.361,2.406-4.414,3.247-6.796,1.872L4.56,69.572  c-2.382-1.375-3.214-4.459-1.853-6.866l27.671-48.918c0.726-1.284,1.839-2.108,3.27-2.421l23.116-5.059  c2.967-0.649,5.724-0.786,8.359,0.736c2.636,1.522,3.919,3.991,4.871,6.903l2.425,7.416c5.282-1.39,11.373-4.041,15.443-7.589  c4.757-4.146,4.093-6.804-2.385-6.931c-4.627-0.091-9.69,1.279-13.917,2.96c-0.467-0.924-1.009-1.787-1.651-2.577  c4.748-1.955,10.467-3.486,15.627-3.385c9.24,0.181,11.158,6.219,4.304,12.193c-6.204,5.408-17.761,9.669-26.01,9.507  c-5.8-0.114-10.949-3.227-7.161-9.018c-0.398,0.035-0.798,0.122-1.191,0.265c-2.415,0.884-3.65,3.57-2.759,6  c0.774,2.109,2.896,3.331,5.022,3.04c1.894,0.899,4.182,1.197,6.17,1.227c3.23,0.049,6.66-0.514,9.915-1.393l3.589,10.973  C77.874,38.041,77.736,39.428,77.01,40.712L77.01,40.712z M61.615,22.351c0.221-0.882,0.189-1.84-0.149-2.761  c-0.344-0.937-0.954-1.7-1.713-2.232C57.46,20.074,58.086,21.773,61.615,22.351L61.615,22.351z M19.089,56.191l27.219,15.715  c0.718,0.413,1.635,0.165,2.048-0.553c0.413-0.718,0.165-1.635-0.553-2.048L20.584,53.59c-0.718-0.413-1.635-0.165-2.048,0.553  C18.123,54.861,18.371,55.778,19.089,56.191L19.089,56.191z M14.283,64.516l27.219,15.715c0.718,0.413,1.635,0.165,2.048-0.553  c0.413-0.718,0.165-1.635-0.553-2.048L15.778,61.915c-0.718-0.413-1.635-0.165-2.048,0.553  C13.317,63.186,13.564,64.103,14.283,64.516L14.283,64.516z M23.896,47.866l27.219,15.715c0.718,0.413,1.635,0.165,2.048-0.553  c0.413-0.718,0.165-1.635-0.553-2.048L25.391,45.265c-0.718-0.413-1.635-0.165-2.048,0.553  C22.93,46.536,23.178,47.453,23.896,47.866z"/></svg>